<svg width="65" height="65" viewBox="0 0 65 65" fill="none" xmlns="http://www.w3.org/2000/svg">
<g clip-path="url(#clip0_9616_2426)">
<rect x="0.5" width="65" height="65" rx="15" fill="black" style="fill:black;fill-opacity:1;"/>
<g clip-path="url(#clip1_9616_2426)">
<path d="M20.1125 46.1264C17.8865 43.9036 19.8328 40.8747 18.232 38.8009C16.835 36.9913 14.661 37.7704 12.7818 37.2899C8.10813 36.0946 8.14425 29.1453 12.7736 27.8457C14.4748 27.3681 16.3069 27.9741 17.8315 26.8046C20.4557 24.7916 18.001 21.161 20.1511 18.8405C22.2917 16.5302 25.3371 18.5179 27.4853 16.7493C29.1906 15.3454 28.2412 13.6787 28.8087 11.9149C29.7092 9.11582 33.5683 8.53278 35.7086 10.2543C37.9033 12.0197 37.7629 15.2698 35.9272 17.2428C33.5492 19.7986 30.2306 18.2707 28.3978 22.2174C27.3618 24.4485 27.1272 26.0572 25.049 27.7369C22.9849 29.4054 18.1564 30.0788 19.6296 33.9564C20.7431 36.8873 24.835 35.6047 27.0232 38.2047C28.9291 40.4695 27.4432 42.819 28.7899 44.8127C30.0744 46.7145 33.084 46.5747 34.7223 45.2226C37.6841 42.7781 36.6562 38.1586 40.7505 36.593C42.0179 36.1085 43.4393 36.1729 44.6318 35.4845C47.1493 34.0311 47.1105 30.7512 44.5928 29.3289C42.4383 28.1118 40.266 29.321 38.4531 26.9061C37.2851 25.3502 37.1844 21.4262 37.9676 19.7127C39.4586 16.4508 45.0088 16.3628 46.3852 19.7185C47.2891 21.9226 45.9432 24.916 47.8777 26.6004C49.242 27.7883 51.0491 27.2306 52.6386 27.8152C57.1417 29.4716 56.5955 36.5481 51.7195 37.3337C50.3046 37.5616 48.9163 37.1549 47.723 38.2656C45.6069 40.2353 47.8885 43.7799 45.3846 46.1494C43.1294 48.2837 40.3936 46.4473 38.5454 47.9348C36.7907 49.347 37.6745 51.1181 36.9584 52.9367C35.5122 56.6093 29.9744 56.6466 28.4791 53.0041C27.8202 51.3991 28.6308 49.7564 27.3593 48.3356C25.4251 46.1744 22.3361 48.3469 20.1125 46.1264Z" fill="white" style="fill:white;fill-opacity:1;"/>
<path d="M32.6825 37.5454C35.4498 37.5454 37.6932 35.3037 37.6932 32.5383C37.6932 29.773 35.4498 27.5312 32.6825 27.5312C29.9152 27.5312 27.6719 29.773 27.6719 32.5383C27.6719 35.3037 29.9152 37.5454 32.6825 37.5454Z" fill="white" style="fill:white;fill-opacity:1;"/>
</g>
</g>
<defs>
<clipPath id="clip0_9616_2426">
<rect width="65" height="65" rx="5" fill="white" style="fill:white;fill-opacity:1;"/>
</clipPath>
<clipPath id="clip1_9616_2426">
<rect width="46.4286" height="46.4286" fill="white" style="fill:white;fill-opacity:1;" transform="translate(9.28906 9.28516)"/>
</clipPath>
</defs>
</svg>
