<svg width="378" height="378" viewBox="0 0 378 378" fill="none" xmlns="http://www.w3.org/2000/svg">
<g clip-path="url(#clip0_9616_2426)">
<rect width="378" height="378" rx="47" fill="black" style="fill:black;fill-opacity:1;"/>
<g clip-path="url(#clip1_9616_2426)">
<path d="M102.831 282.715C87.4416 267.346 100.898 246.405 89.83 232.067C80.1716 219.556 65.1406 224.943 52.1484 221.62C19.8352 213.357 20.085 165.31 52.0916 156.325C63.8532 153.023 76.5205 157.213 87.0612 149.127C105.205 135.209 88.2332 110.108 103.099 94.0642C117.898 78.0913 138.954 91.8339 153.806 79.6062C165.596 69.8993 159.032 58.3764 162.956 46.1815C169.182 26.8292 195.863 22.7982 210.66 34.7008C225.834 46.9062 224.864 69.3769 212.172 83.0178C195.731 100.689 172.786 90.1248 160.115 117.411C152.952 132.837 151.33 143.959 136.962 155.573C122.691 167.108 89.3073 171.764 99.4929 198.573C107.192 218.837 135.483 209.969 150.611 227.946C163.788 243.604 153.515 259.848 162.825 273.632C171.707 286.781 192.514 285.814 203.841 276.466C224.319 259.565 217.212 227.626 245.52 216.802C254.282 213.452 264.109 213.898 272.354 209.138C289.76 199.09 289.491 176.413 272.084 166.58C257.188 158.164 242.169 166.525 229.636 149.829C221.56 139.072 220.864 111.942 226.279 100.095C236.588 77.5419 274.961 76.9335 284.477 100.135C290.727 115.373 281.421 136.069 294.796 147.715C304.228 155.928 316.722 152.072 327.712 156.114C358.846 167.566 355.069 216.492 321.358 221.923C311.575 223.499 301.976 220.687 293.726 228.366C279.096 241.984 294.871 266.491 277.559 282.874C261.967 297.63 243.052 284.933 230.274 295.217C218.142 304.982 224.252 317.227 219.301 329.8C209.303 355.192 171.015 355.45 160.677 330.266C156.121 319.169 161.726 307.812 152.935 297.989C139.562 283.047 118.205 298.067 102.831 282.715Z" fill="white" style="fill:white;fill-opacity:1;"/>
<path d="M189.737 223.393C208.869 223.393 224.379 207.893 224.379 188.774C224.379 169.655 208.869 154.156 189.737 154.156C170.604 154.156 155.094 169.655 155.094 188.774C155.094 207.893 170.604 223.393 189.737 223.393Z" fill="white" style="fill:white;fill-opacity:1;"/>
</g>
</g>
<defs>
<clipPath id="clip0_9616_2426">
<rect width="378" height="378" rx="47" fill="white" style="fill:white;fill-opacity:1;"/>
</clipPath>
<clipPath id="clip1_9616_2426">
<rect width="321" height="321" fill="white" style="fill:white;fill-opacity:1;" transform="translate(28 28)"/>
</clipPath>
</defs>
</svg>
