<svg width="800" height="800" viewBox="0 0 800 800" fill="none" xmlns="http://www.w3.org/2000/svg">
<path d="M254.533 344.8C254.533 353 255.433 359.667 256.967 364.533C258.733 369.4 260.967 374.733 264.067 380.5C265.057 382.019 265.6 383.787 265.633 385.6C265.633 387.833 264.3 390.033 261.433 392.267L247.467 401.567C245.78 402.781 243.776 403.476 241.7 403.567C239.467 403.567 237.267 402.467 235.033 400.467C232.043 397.257 229.375 393.763 227.067 390.033C224.582 385.784 222.291 381.424 220.2 376.967C202.9 397.367 181.167 407.567 155 407.567C136.367 407.567 121.533 402.233 110.667 391.6C99.7999 380.967 94.2666 366.767 94.2666 349.033C94.2666 330.2 100.933 314.9 114.433 303.367C127.933 291.833 145.933 286.067 168.767 286.067C176.3 286.067 184.067 286.733 192.267 287.833C200.433 288.9 208.867 290.7 217.733 292.667V276.5C217.733 259.633 214.2 247.9 207.3 241.033C200.233 234.133 188.233 230.833 171.167 230.833C163.4 230.833 155.433 231.733 147.233 233.7C139.087 235.641 131.089 238.158 123.3 241.233C120.772 242.355 118.178 243.324 115.533 244.133C114.388 244.504 113.201 244.728 112 244.8C108.9 244.8 107.333 242.567 107.333 237.933V227.067C107.333 223.533 107.767 220.867 108.9 219.3C110.567 217.275 112.692 215.675 115.1 214.633C122.833 210.633 132.133 207.333 143 204.667C154.304 201.78 165.934 200.368 177.6 200.467C204 200.467 223.267 206.467 235.7 218.433C247.9 230.4 254.1 248.6 254.1 272.967V344.8H254.533ZM164.533 378.5C171.867 378.5 179.4 377.167 187.367 374.5C195.333 371.833 202.433 366.967 208.433 360.3C211.967 356.1 214.633 351.433 215.967 346.1C217.3 340.767 218.2 334.333 218.2 326.8V317.5C211.461 315.883 204.64 314.625 197.767 313.733C190.857 312.849 183.899 312.403 176.933 312.4C162.067 312.4 151.2 315.267 143.9 321.267C136.567 327.267 133.033 335.667 133.033 346.767C133.033 357.2 135.7 364.933 141.233 370.267C146.567 375.833 154.333 378.5 164.533 378.5ZM342.567 402.433C338.567 402.433 335.9 401.767 334.133 400.2C332.367 398.867 330.8 395.767 329.467 391.567L277.367 220.167C276.033 215.733 275.367 212.833 275.367 211.3C275.367 207.767 277.133 205.767 280.7 205.767H302.433C306.633 205.767 309.533 206.433 311.067 208C312.833 209.333 314.167 212.433 315.5 216.633L352.767 363.4L387.367 216.633C388.467 212.2 389.8 209.3 391.567 208C394.222 206.361 397.318 205.581 400.433 205.767H418.167C422.367 205.767 425.267 206.433 427.033 208C428.8 209.333 430.367 212.433 431.233 216.633L466.267 365.2L504.633 216.633C505.967 212.2 507.5 209.3 509.067 208C511.636 206.363 514.659 205.581 517.7 205.767H538.333C541.867 205.767 543.867 207.533 543.867 211.3C543.867 212.4 543.633 213.533 543.433 214.833C543.081 216.722 542.557 218.574 541.867 220.367L488.433 391.767C487.1 396.2 485.567 399.1 483.767 400.4C481.26 402.013 478.309 402.795 475.333 402.633H456.267C452.067 402.633 449.167 401.967 447.4 400.4C445.633 398.833 444.067 395.967 443.2 391.533L408.833 248.533L374.7 391.333C373.6 395.767 372.267 398.667 370.5 400.2C368.733 401.733 365.633 402.433 361.633 402.433H342.567ZM627.5 408.433C615.967 408.433 604.433 407.1 593.367 404.433C582.267 401.767 573.633 398.9 567.867 395.567C564.333 393.567 561.867 391.367 561 389.367C560.13 387.415 559.676 385.303 559.667 383.167V371.867C559.667 367.2 561.433 365 564.767 365C566.1 365 567.433 365.233 568.767 365.667C570.1 366.1 572.1 367 574.3 367.9C581.833 371.233 590.033 373.9 598.7 375.667C607.567 377.433 616.2 378.333 625.1 378.333C639.067 378.333 649.933 375.9 657.467 371C661.079 368.821 664.05 365.724 666.076 362.023C668.102 358.322 669.111 354.151 669 349.933C669.074 347.076 668.581 344.233 667.552 341.567C666.522 338.901 664.975 336.465 663 334.4C659 330.2 651.467 326.433 640.6 322.867L608.433 312.9C592.233 307.8 580.267 300.267 572.967 290.3C565.818 281.096 561.915 269.787 561.867 258.133C561.867 248.833 563.867 240.633 567.867 233.533C571.867 226.433 577.167 220.233 583.833 215.367C590.5 210.267 598.033 206.5 606.9 203.833C615.733 201.1 625.033 200 634.8 200C639.667 200 644.767 200.233 649.667 200.9C654.767 201.567 659.433 202.467 664.067 203.333C668.5 204.433 672.7 205.567 676.7 206.867C680.7 208.2 683.8 209.533 686 210.867C689.1 212.633 691.333 214.4 692.667 216.4C694 218.167 694.667 220.6 694.667 223.733V234.167C694.667 238.833 692.9 241.267 689.567 241.267C686.611 240.924 683.749 240.018 681.133 238.6C667.734 232.682 653.212 229.736 638.567 229.967C625.933 229.967 615.967 231.967 609.067 236.167C602.2 240.367 598.633 246.8 598.633 255.9C598.633 262.1 600.867 267.433 605.3 271.633C609.733 275.833 617.933 280.067 629.7 283.833L661.2 293.8C677.167 298.9 688.7 306 695.567 315.1C702.433 324.2 705.767 334.6 705.767 346.133C705.767 355.667 703.767 364.3 700 371.867C696 379.4 690.7 386.067 683.8 391.367C676.485 397.061 668.129 401.273 659.2 403.767C649.2 406.867 638.8 408.433 627.5 408.433Z" fill="black" style="fill:black;fill-opacity:1;"/>
<path fill-rule="evenodd" clip-rule="evenodd" d="M669.4 516.166C596.467 570.033 490.467 598.633 399.333 598.633C271.633 598.633 156.533 551.4 69.6335 472.9C62.7668 466.7 68.9668 458.266 77.1668 463.133C171.167 517.666 287.133 550.7 407.1 550.7C488.033 550.7 576.933 533.833 658.767 499.266C670.933 493.8 681.367 507.3 669.4 516.166Z" fill="black" style="fill:black;fill-opacity:1;"/>
<path fill-rule="evenodd" clip-rule="evenodd" d="M699.766 481.6C690.466 469.633 638.133 475.833 614.4 478.733C607.3 479.633 606.2 473.4 612.633 468.767C654.333 439.5 722.833 447.933 730.8 457.666C738.766 467.633 728.566 536.167 689.566 568.967C683.566 574.067 677.8 571.4 680.466 564.767C689.333 542.8 709.066 493.333 699.766 481.6Z" fill="black" style="fill:black;fill-opacity:1;"/>
</svg>
