<svg width="801" height="800" viewBox="0 0 801 800" fill="none" xmlns="http://www.w3.org/2000/svg">
<path d="M491.125 56.8442C462.078 52.063 419.563 49.8598 390.703 50.0005C363.654 50.0318 336.654 52.321 309.985 56.8442C238.516 69.3442 225.5 95.438 225.5 143.625V200H400.5V225H168.656C103.719 225 51.0159 302.61 50.5002 398.625C50.5002 399.079 50.5002 399.532 50.5002 400C50.4777 416.788 52.1159 433.536 55.3909 450C69.9065 522.313 115.125 575 168.656 575H200.5V490.625C200.5 441.719 233.063 396.954 286.438 387.344L301.86 385.422H491.125C499.074 385.453 506.991 384.402 514.656 382.297C532.182 377.617 547.661 367.258 558.671 352.842C569.681 338.425 575.599 320.765 575.5 302.625V143.625C575.5 98.438 536.938 64.3598 491.125 56.8442ZM305.078 164.844C298.774 164.866 292.605 163.015 287.355 159.526C282.104 156.037 278.007 151.067 275.585 145.247C273.162 139.427 272.523 133.018 273.747 126.834C274.972 120.649 278.005 114.968 282.463 110.51C286.921 106.053 292.602 103.019 298.787 101.794C304.971 100.57 311.379 101.209 317.2 103.632C323.02 106.054 327.99 110.151 331.479 115.402C334.968 120.652 336.819 126.821 336.797 133.125C336.799 137.291 335.98 141.417 334.387 145.266C332.794 149.115 330.457 152.613 327.511 155.559C324.566 158.504 321.068 160.841 317.219 162.434C313.37 164.027 309.244 164.846 305.078 164.844Z" fill="black" style="fill:black;fill-opacity:1;"/>
<path d="M743.125 339.063C726.406 272.484 683.109 225 632.344 225H604.672V299.141C604.672 360.969 564.047 405.734 514.453 413.406C509.444 414.183 504.382 414.575 499.312 414.578H310C301.97 414.57 293.972 415.594 286.203 417.625C251.344 426.781 225.5 455.781 225.5 493.391V652.406C225.5 697.719 271.031 724.281 315.703 737.266C369.156 752.813 427.391 755.625 491.359 737.266C533.844 725.125 575.5 700.578 575.5 652.406V600H400.5V575H632.344C678.344 575 718.203 536.047 737.734 479.203C746.312 453.683 750.625 426.923 750.5 400C750.544 379.462 748.067 358.997 743.125 339.063ZM495.047 631.25C501.351 631.228 507.52 633.079 512.771 636.568C518.022 640.057 522.118 645.027 524.54 650.847C526.963 656.668 527.603 663.076 526.378 669.261C525.153 675.445 522.12 681.126 517.662 685.584C513.204 690.042 507.523 693.075 501.339 694.3C495.154 695.524 488.746 694.885 482.926 692.462C477.105 690.04 472.136 685.943 468.647 680.693C465.158 675.442 463.306 669.273 463.328 662.969C463.326 658.803 464.145 654.677 465.738 650.828C467.332 646.979 469.668 643.481 472.614 640.536C475.56 637.59 479.057 635.254 482.906 633.66C486.755 632.067 490.881 631.248 495.047 631.25Z" fill="black" style="fill:black;fill-opacity:1;"/>
</svg>
