<svg width="801" height="800" viewBox="0 0 801 800" fill="none" xmlns="http://www.w3.org/2000/svg">
<path d="M642.156 282.375C634.167 279.646 626.12 277.104 618.016 274.75C619.359 269.281 620.599 263.781 621.734 258.25C640.016 169.344 628.062 97.7186 587.266 74.1405C548.203 51.5155 484.141 75.0936 419.516 131.469C413.161 137.031 406.938 142.76 400.844 148.656C396.781 144.739 392.615 140.906 388.344 137.156C320.609 76.8748 252.719 51.4842 211.969 75.1405C172.906 97.8123 161.297 165.14 177.75 249.406C179.396 257.739 181.245 266.036 183.297 274.297C173.687 277.031 164.406 279.953 155.531 283.047C76.2188 310.781 25.5 354.265 25.5 399.359C25.5 445.953 79.9375 492.672 162.641 521C169.349 523.281 176.12 525.401 182.953 527.359C180.734 536.203 178.771 545.146 177.062 554.187C161.438 637 173.625 702.734 212.609 725.266C252.875 748.531 320.422 724.625 386.266 666.969C391.474 662.406 396.682 657.588 401.891 652.515C408.474 658.88 415.245 665.057 422.203 671.047C485.953 726.015 548.906 748.219 587.828 725.625C628.063 702.281 641.141 631.656 624.156 545.734C622.854 539.172 621.354 532.474 619.656 525.64C624.406 524.234 629.057 522.781 633.609 521.281C719.547 492.734 775.531 446.578 775.531 399.406C775.5 354.094 723.156 310.328 642.156 282.375ZM440.594 155.687C495.953 107.39 547.703 88.328 571.297 101.953C596.406 116.469 606.172 175 590.391 251.765C589.349 256.765 588.224 261.75 587.016 266.719C553.979 259.204 520.477 253.901 486.734 250.844C467.415 223.014 446.236 196.521 423.344 171.547C428.948 166.109 434.688 160.823 440.563 155.687H440.594ZM246.953 437.89C253.734 451.015 260.823 463.979 268.219 476.781C275.75 489.844 283.599 502.713 291.766 515.39C268.548 512.866 245.476 509.148 222.641 504.25C229.266 482.812 237.422 460.547 246.953 437.89ZM246.953 362.375C237.578 340.203 229.641 318.39 223.125 297.328C244.531 292.531 267.344 288.609 291.125 285.64C283.156 298.078 275.49 310.698 268.125 323.5C260.76 336.302 253.687 349.26 246.906 362.375H246.953ZM263.984 400.14C273.859 379.547 284.495 359.349 295.891 339.547C307.276 319.755 319.396 300.416 332.25 281.531C354.563 279.844 377.437 278.953 400.547 278.953C423.656 278.953 446.672 279.844 468.969 281.547C481.688 300.39 493.734 319.661 505.109 339.359C516.484 359.057 527.26 379.161 537.438 399.672C527.396 420.338 516.646 440.62 505.188 460.515C493.823 480.307 481.844 499.703 469.25 518.703C446.984 520.265 423.938 521.125 400.5 521.125C377.062 521.125 354.453 520.391 332.594 518.969C319.646 500.021 307.427 480.599 295.938 460.703C284.448 440.807 273.781 420.62 263.938 400.14H263.984ZM532.922 476.562C540.474 463.458 547.724 450.182 554.672 436.734C564.196 458.329 572.603 480.4 579.859 502.859C556.756 508.062 533.396 512.052 509.875 514.812C517.812 502.219 525.495 489.469 532.922 476.562ZM554.359 362.39C547.443 349.213 540.25 336.193 532.781 323.328C525.49 310.64 517.891 298.109 509.984 285.734C533.906 288.765 556.859 292.797 578.375 297.719C571.457 319.664 563.442 341.249 554.359 362.39ZM400.859 194.5C416.462 211.548 431.194 229.373 445 247.906C415.469 246.5 385.917 246.5 356.344 247.906C370.922 228.625 385.844 210.734 400.859 194.5ZM228.094 102.906C253.188 88.3436 308.672 109.156 367.156 161.14C370.891 164.469 374.656 167.953 378.406 171.562C355.396 196.533 334.068 223.003 314.562 250.797C280.895 253.83 247.459 259.05 214.469 266.422C212.563 258.755 210.844 251.036 209.312 243.265C195.172 171.031 204.531 116.578 228.094 102.906ZM191.516 496.422C185.266 494.64 179.094 492.708 173 490.625C136.438 478.125 106.234 461.812 85.5 444.047C66.9375 428.125 57.5312 412.234 57.5312 399.359C57.5312 372 98.25 337.094 166.156 313.422C174.687 310.453 183.292 307.739 191.969 305.281C202.054 337.692 214.268 369.402 228.531 400.203C214.098 431.43 201.733 463.572 191.516 496.422ZM365.156 642.781C336.047 668.281 306.891 686.359 281.187 695.469C258.094 703.64 239.703 703.875 228.594 697.453C204.937 683.781 195.094 630.984 208.516 560.172C210.109 551.838 211.932 543.505 213.984 535.172C247.305 542.349 281.076 547.251 315.063 549.844C334.759 577.783 356.263 604.402 379.438 629.531C374.781 634.109 370.016 638.515 365.156 642.781ZM401.75 606.5C386.562 590.078 371.406 571.906 356.625 552.375C370.99 552.937 385.615 553.219 400.5 553.219C415.781 553.219 430.906 552.891 445.812 552.219C432.057 571.049 417.35 589.166 401.75 606.5ZM596.313 651.172C591.844 675.297 582.859 691.39 571.75 697.828C548.109 711.547 497.562 693.719 443.062 646.703C436.812 641.328 430.563 635.562 424.203 629.516C446.926 604.288 467.927 577.561 487.062 549.515C521.237 546.62 555.172 541.373 588.625 533.812C590.156 540 591.51 546.062 592.688 552C600.203 589.969 601.281 624.312 596.313 651.172ZM623.5 490.797C619.406 492.156 615.188 493.469 610.906 494.75C600.416 462.186 587.726 430.374 572.922 399.531C587.17 369.1 599.364 337.749 609.422 305.687C617.094 307.922 624.547 310.265 631.719 312.75C701.125 336.687 743.469 372.125 743.469 399.359C743.469 428.422 697.734 466.14 623.5 490.797Z" fill="black" style="fill:black;fill-opacity:1;"/>
<path d="M400.5 466.484C413.798 466.527 426.809 462.624 437.887 455.267C448.965 447.911 457.61 437.433 462.729 425.16C467.848 412.887 469.21 399.371 466.642 386.324C464.074 373.276 457.693 361.284 448.305 351.866C438.917 342.447 426.946 336.027 413.907 333.416C400.868 330.806 387.348 332.124 375.058 337.203C362.768 342.282 352.262 350.893 344.87 361.947C337.478 373 333.531 385.999 333.531 399.297C333.513 408.107 335.231 416.834 338.587 424.979C341.943 433.125 346.872 440.529 353.092 446.769C359.311 453.009 366.699 457.962 374.834 461.345C382.969 464.727 391.69 466.474 400.5 466.484Z" fill="black" style="fill:black;fill-opacity:1;"/>
</svg>
